<?xml version="1.0" encoding="utf-8"?>
<svg version="1.1" xmlns="http://www.w3.org/2000/svg" xmlns:xlink="http://www.w3.org/1999/xlink" x="0px" y="0px"
	 viewBox="0 0 208 244" style="enable-background:new 0 0 208 244;" xml:space="preserve">
<path class="hand__pinky" d="M182.1,69.8c-0.4-0.7-1-1.4-1.7-1.9c-0.7-0.5-1.4-1-2.3-1.2c-0.4-0.1-0.9-0.2-1.3-0.3c-1.7-0.2-3.4,0.1-4.9,1
	c-0.7,0.4-1.4,1-1.9,1.7c-0.5,0.6-0.9,1.4-1.2,2.2l0,0.1c-2.1,5.1-4.1,10.3-6.2,15.5c-3.4,8.5-7,17-10.3,25.6c-1,2.5-1.9,5-1.9,5
	c-0.6,1.5,0.4,2,2.7,3c3.6,1.6,7.2,3.4,9.5,4.8c1.3,0.8,1.8,1.4,2.5-0.7c0.7-2.1,17.5-48.4,17.5-48.4s0.4-1,0.5-1.5
	C183.4,72.9,183,71.2,182.1,69.8z"/>
<path class="hand__ring" d="M127.1,112.3c4.3,1.2,12.4,3.6,14.9,4.2s2.2-0.7,2.4-3c1.3-9.9,7.6-58.2,7.6-58.2l0,0l1.3-11.3
	c0.1-0.5,0.1-0.8,0.1-0.8c0.1-2.1-0.6-4.1-1.9-5.6c-0.6-0.8-1.4-1.4-2.3-1.9c-0.9-0.5-1.8-0.8-2.9-1c-0.3-0.1-0.6-0.1-0.9-0.1
	c-2.1-0.1-4.1,0.6-5.6,1.9c-0.8,0.6-1.4,1.4-1.9,2.3c-0.5,0.9-0.8,1.8-1,2.8c0,0,0,0.1,0,0.1L124.5,109
	C124.1,111.5,124.7,111.7,127.1,112.3z"/>
<path class="hand__middle" d="M100.2,108.6c2.7,0.1,11.3,1.2,15,1.7s2.2-2.9,2.1-7.5c0-0.4,0-0.9,0-1.3c0-9.5-0.4-18.9-0.7-28.3
	c-0.3-10.1-0.6-20.2-0.9-30.3c-0.1-2.3-0.1-4.5-0.2-6.8l0,0l-0.4-7.9c0-0.2,0.1-0.4,0.1-0.6c-0.1-2.3-1.1-4.3-2.7-5.8
	c-0.8-0.8-1.7-1.4-2.8-1.8c-1-0.4-2.2-0.7-3.4-0.7c-0.1,0-0.2,0-0.3,0c-1.2,0-2.3,0.3-3.3,0.8c-1,0.5-1.9,1.1-2.7,1.9
	c-0.8,0.8-1.4,1.7-1.8,2.8c-0.4,1-0.7,2.2-0.7,3.4l0,0.1l-0.6,72.6c0,0-0.1,3.3-0.1,5.3S97.6,108.5,100.2,108.6z"/>
<path class="hand__index" d="M56.6,49.2c0,0.2,0.1,0.5,0.2,1l12.3,56.3c0.5,2.2,1.7,3,4.1,2.9s7.9-0.8,13.8-1.1c5-0.3,2.9-3.9,1.4-7.8
	c-0.6-1.8-1.4-3.7-2-5.5c-3.4-9.8-6.2-19.8-9.2-29.7c-1.8-5.9-3.6-11.8-5.4-17.7c0,0-0.5-1.6-0.5-1.6l0-0.1
	c-0.2-0.9-0.6-1.7-1.1-2.4c-0.5-0.7-1.2-1.4-1.9-1.9c-1.5-1-3.3-1.5-5.1-1.3c-0.3,0-0.7,0.1-1,0.2c-0.9,0.2-1.8,0.6-2.5,1.1
	c-0.7,0.5-1.4,1.2-1.9,1.9c-1,1.5-1.5,3.3-1.3,5.1C56.5,48.9,56.6,49.1,56.6,49.2z"/>
<path class="hand__palm" d="M116,187.1c0.3,0,0.9-0.1,1-0.8c-0.7-16.6-7.4-30.8-20.2-39.4c-8.2-5.5-16.9-7.1-22.3-8.1
	c-0.9-0.2-2.2-0.9-2.9-1.6l0,0c-0.2-0.4-0.4-0.9-0.4-1.4c-0.2-4.8-0.4-9.6-0.7-15.3c-0.1-2.9-0.5-4.5,4.9-5.2c5.1-0.8,22.9-2,45,2.2
	c22.1,4.2,36.6,12.1,36.6,12.1s6.4,3.1,4.3,10.3c-1.6,5.9-6.8,29.8-11.1,55.2c0,0.1,0,0.1,0,0.2c-0.4,3.3-1.4,6.3-2.8,8.8
	c-1.4,2.6-3.2,4.9-5.5,6.6c-0.2,0.1-0.3,0.2-0.5,0.3c-1.1,0.7-2,1.7-2.5,2.9c-0.4,1-0.7,2-1.1,3.2c-0.1,0.5-0.3,0.9-0.4,1.4
	c-0.9,2.6-3.3,4.3-6.1,4.3H89.3c-2.9,0-5.6-2-6.2-4.8c-0.1-0.3-0.1-0.7-0.2-1"/>
<path class="hand__thumb" d="M116,187.2c-0.3,0-1-0.2-1-0.9l0,0c-0.3-1.9-0.4-2.3-0.9-4.5c0,0,0,0,0,0c-0.1-0.4-0.2-0.8-0.3-1.2
	c-9.4-37.7-45-36.3-53.3-35.5c0,0-0.6-2.9-5.7-8.3c-0.4-0.4-0.7-0.7-1-1c-0.1-0.1-0.2-0.2-0.3-0.3c-0.1-0.1-0.2-0.2-0.2-0.2
	c-1.8-1.8-3.6-3.6-5.5-5.4c-1.9-1.8-3.9-3.5-6-4.9c-2.1-1.4-4.4-2.6-6.8-3.5c-2.4-0.8-4.9-1.2-7.6-1.1c-0.1,0-0.1,0-0.2,0
	c-0.1,0-0.3,0-0.6,0.1c-0.8,0.1-2.2,0.4-3.5,0.6c-0.7,0.1-1.2,0.6-1.5,1.2c-0.3,0.6-0.2,1.3,0.1,1.9c1,1.6,2.5,4,4.3,6.8l0,0
	c6.4,9.5,15.7,23.3,15.8,23.4c0,0,29.8,48.1,29.8,48.1c2.7,3.8,4.7,6.6,8.1,8.4c1,0.5,1.8,1.5,2.1,2.6c0.3,1.1,0.7,2.3,0.9,3.6
	l3.4,2l17.6-1.4l12-17.5V187.2z"/>
</svg>
